<svg xmlns="http://www.w3.org/2000/svg" xmlns:xlink="http://www.w3.org/1999/xlink" width="100%" zoomAndPan="magnify" viewBox="176.00 301.94 457.18 222.92" height="100%" preserveAspectRatio="xMidYMid meet" version="1.0"><defs><g/><clipPath id="933900d5eb"><path d="M 17 23 L 213 23 L 213 175 L 17 175 Z M 17 23 " clip-rule="nonzero"/></clipPath><clipPath id="76d7876874"><path d="M 0.253906 43.214844 L 200.828125 7.582031 L 224.285156 139.628906 L 23.710938 175.261719 Z M 0.253906 43.214844 " clip-rule="nonzero"/></clipPath><clipPath id="fa6ac8cc9f"><path d="M 0.253906 43.214844 L 200.828125 7.582031 L 224.285156 139.628906 L 23.710938 175.261719 Z M 0.253906 43.214844 " clip-rule="nonzero"/></clipPath><clipPath id="fa9497bd89"><path d="M 31 29 L 194 29 L 194 152 L 31 152 Z M 31 29 " clip-rule="nonzero"/></clipPath><clipPath id="e3dff036e8"><path d="M 2.792969 74.460938 L 156.785156 0.820312 L 193.605469 77.816406 L 39.613281 151.457031 Z M 2.792969 74.460938 " clip-rule="nonzero"/></clipPath><clipPath id="f243568369"><path d="M 2.792969 74.460938 L 156.785156 0.820312 L 193.605469 77.816406 L 39.613281 151.457031 Z M 2.792969 74.460938 " clip-rule="nonzero"/></clipPath><clipPath id="af9b16b944"><path d="M 164 71 L 198 71 L 198 118 L 164 118 Z M 164 71 " clip-rule="nonzero"/></clipPath><clipPath id="fb320624e8"><path d="M 0.761719 93.6875 L 213.589844 40.136719 L 235.777344 128.320312 L 22.953125 181.871094 Z M 0.761719 93.6875 " clip-rule="nonzero"/></clipPath><clipPath id="b041abdb24"><path d="M 0.761719 93.6875 L 213.589844 40.136719 L 235.777344 128.320312 L 22.953125 181.871094 Z M 0.761719 93.6875 " clip-rule="nonzero"/></clipPath><clipPath id="767ac3400a"><path d="M 99 94 L 140 94 L 140 122 L 99 122 Z M 99 94 " clip-rule="nonzero"/></clipPath><clipPath id="982d754724"><path d="M 0.761719 93.6875 L 213.589844 40.136719 L 235.777344 128.320312 L 22.953125 181.871094 Z M 0.761719 93.6875 " clip-rule="nonzero"/></clipPath><clipPath id="23f60050f9"><path d="M 0.761719 93.6875 L 213.589844 40.136719 L 235.777344 128.320312 L 22.953125 181.871094 Z M 0.761719 93.6875 " clip-rule="nonzero"/></clipPath><clipPath id="060f55e1a9"><path d="M 18 104 L 75 104 L 75 178 L 18 178 Z M 18 104 " clip-rule="nonzero"/></clipPath><clipPath id="c1e70aca44"><path d="M 0.761719 93.6875 L 213.589844 40.136719 L 235.777344 128.320312 L 22.953125 181.871094 Z M 0.761719 93.6875 " clip-rule="nonzero"/></clipPath><clipPath id="2947c3e287"><path d="M 0.761719 93.6875 L 213.589844 40.136719 L 235.777344 128.320312 L 22.953125 181.871094 Z M 0.761719 93.6875 " clip-rule="nonzero"/></clipPath><clipPath id="aba0964109"><path d="M 68 81 L 101 81 L 101 114 L 68 114 Z M 68 81 " clip-rule="nonzero"/></clipPath><clipPath id="5e529c941e"><path d="M 0.761719 93.6875 L 213.589844 40.136719 L 235.777344 128.320312 L 22.953125 181.871094 Z M 0.761719 93.6875 " clip-rule="nonzero"/></clipPath><clipPath id="ef43dab8fc"><path d="M 0.761719 93.6875 L 213.589844 40.136719 L 235.777344 128.320312 L 22.953125 181.871094 Z M 0.761719 93.6875 " clip-rule="nonzero"/></clipPath><clipPath id="78b52631a6"><path d="M 137 105 L 170 105 L 170 138 L 137 138 Z M 137 105 " clip-rule="nonzero"/></clipPath><clipPath id="0f34af7d50"><path d="M 0.761719 93.6875 L 213.589844 40.136719 L 235.777344 128.320312 L 22.953125 181.871094 Z M 0.761719 93.6875 " clip-rule="nonzero"/></clipPath><clipPath id="337d343f6d"><path d="M 0.761719 93.6875 L 213.589844 40.136719 L 235.777344 128.320312 L 22.953125 181.871094 Z M 0.761719 93.6875 " clip-rule="nonzero"/></clipPath><clipPath id="bec4ef6d33"><path d="M 185 43 L 218 43 L 218 76 L 185 76 Z M 185 43 " clip-rule="nonzero"/></clipPath><clipPath id="d580a0be68"><path d="M 0.761719 93.6875 L 213.589844 40.136719 L 235.777344 128.320312 L 22.953125 181.871094 Z M 0.761719 93.6875 " clip-rule="nonzero"/></clipPath><clipPath id="6833f8250c"><path d="M 0.761719 93.6875 L 213.589844 40.136719 L 235.777344 128.320312 L 22.953125 181.871094 Z M 0.761719 93.6875 " clip-rule="nonzero"/></clipPath><clipPath id="17c453ce6b"><rect x="0" width="236" y="0" height="182"/></clipPath></defs><g transform="matrix(1, 0, 0, 1, 287, 294)"><g clip-path="url(#17c453ce6b)"><g clip-path="url(#933900d5eb)"><g clip-path="url(#76d7876874)"><g clip-path="url(#fa6ac8cc9f)"><path fill="#FFFFFF" d="M 71.421875 36.886719 C 34.765625 57.480469 12.527344 99.011719 18.582031 143.191406 C 20.105469 154.28125 23.304688 164.734375 27.882812 174.324219 L 28.191406 174.15625 C 23.675781 164.703125 20.550781 154.386719 19.105469 143.425781 C 18.789062 141.039062 18.566406 138.664062 18.417969 136.292969 C 26.660156 136.160156 34.957031 135.539062 43.285156 134.425781 C 45.675781 143.492188 49 152.21875 53.078125 160.449219 L 53.300781 160.328125 C 49.238281 152.132812 45.957031 143.433594 43.628906 134.382812 C 50.460938 133.457031 57.3125 132.203125 64.15625 130.597656 C 68.738281 129.527344 73.242188 128.3125 77.679688 126.964844 C 80.003906 132.320312 82.519531 137.601562 85.207031 142.757812 L 85.335938 142.6875 C 82.65625 137.539062 80.140625 132.265625 77.832031 126.914062 C 91.785156 122.667969 105.023438 117.105469 117.441406 110.390625 L 127.894531 128.886719 L 117.75 110.21875 C 129.859375 103.644531 141.1875 95.976562 151.628906 87.371094 C 154.667969 91.859375 157.605469 96.53125 160.410156 101.347656 L 160.535156 101.277344 C 157.730469 96.453125 154.785156 91.773438 151.75 87.269531 C 160.15625 80.332031 167.988281 72.792969 175.191406 64.726562 C 180.742188 70.863281 185.804688 77.636719 190.234375 84.921875 L 190.476562 84.789062 C 186.023438 77.472656 180.957031 70.65625 175.417969 64.46875 C 180.292969 58.996094 184.882812 53.28125 189.164062 47.355469 C 198.121094 54.492188 205.890625 63.105469 212.054688 72.90625 L 212.371094 72.734375 C 190.996094 38.769531 151.082031 18.574219 108.738281 24.382812 C 98.085938 25.84375 88.023438 28.847656 78.746094 33.140625 C 77.949219 33.488281 77.164062 33.851562 76.382812 34.230469 C 75.777344 34.496094 75.1875 34.792969 74.617188 35.125 C 74.574219 35.148438 74.53125 35.179688 74.488281 35.207031 C 74.078125 35.425781 73.667969 35.640625 73.265625 35.871094 C 73.183594 35.914062 73.109375 35.964844 73.027344 36.011719 C 72.492188 36.300781 71.949219 36.585938 71.421875 36.886719 Z M 74.988281 36.910156 C 75.222656 36.789062 75.457031 36.667969 75.691406 36.546875 L 82 47.691406 C 76.167969 50.785156 70.207031 53.429688 64.160156 55.648438 C 65.792969 46.792969 69.460938 40.332031 74.988281 36.910156 Z M 77.253906 35.753906 C 77.398438 35.679688 77.546875 35.617188 77.691406 35.546875 C 81.828125 33.878906 86.804688 33.648438 92.582031 35.089844 C 94.632812 35.601562 96.726562 36.3125 98.855469 37.203125 C 94.164062 40.589844 89.226562 43.734375 84.039062 46.589844 C 83.8125 46.71875 83.578125 46.835938 83.351562 46.960938 L 77.257812 35.753906 Z M 68.382812 41.050781 C 65.765625 44.886719 63.992188 49.9375 63.113281 56.023438 C 59.269531 57.402344 55.382812 58.601562 51.480469 59.636719 C 55.976562 52.230469 61.671875 45.941406 68.382812 41.050781 Z M 84.785156 32.65625 C 90.328125 30.839844 96.28125 29.78125 102.601562 29.574219 C 104.546875 29.511719 106.496094 29.535156 108.445312 29.632812 C 105.65625 32.03125 102.765625 34.34375 99.765625 36.542969 C 97.078125 35.296875 94.433594 34.332031 91.871094 33.671875 C 89.355469 33.023438 86.992188 32.691406 84.785156 32.65625 Z M 58.914062 47.261719 C 55.371094 51.078125 52.246094 55.390625 49.59375 60.128906 C 47.738281 60.589844 45.878906 61.011719 44.011719 61.402344 C 48.496094 56.238281 53.484375 51.496094 58.914062 47.261719 Z M 96.390625 28.523438 C 100.609375 27.378906 104.945312 26.46875 109.382812 25.839844 C 110.648438 25.660156 111.914062 25.507812 113.171875 25.371094 C 112.097656 26.386719 111 27.390625 109.886719 28.378906 C 107.234375 28.152344 104.574219 28.066406 101.921875 28.136719 C 100.042969 28.1875 98.199219 28.324219 96.390625 28.523438 Z M 42.613281 63.042969 C 44.660156 62.644531 46.707031 62.203125 48.742188 61.710938 C 45.765625 67.355469 43.433594 73.570312 41.8125 80.238281 C 37.972656 80.773438 34.128906 81.164062 30.289062 81.417969 C 33.746094 74.882812 37.878906 68.71875 42.613281 63.042969 Z M 115.359375 25.164062 C 124.101562 24.414062 132.6875 24.757812 140.992188 26.089844 C 138.617188 28.867188 136.144531 31.574219 133.574219 34.1875 C 126.414062 31.296875 119.078125 29.371094 111.714844 28.554688 C 112.949219 27.441406 114.167969 26.3125 115.359375 25.164062 Z M 50.507812 61.289062 C 50.511719 61.285156 50.515625 61.285156 50.515625 61.28125 C 54.679688 60.226562 58.816406 58.972656 62.921875 57.527344 C 62.292969 62.902344 62.324219 69.027344 63.050781 75.785156 C 56.359375 77.667969 49.628906 79.09375 42.886719 80.082031 C 44.695312 73.285156 47.257812 66.980469 50.507812 61.289062 Z M 110.371094 29.753906 C 117.953125 30.332031 125.507812 32.09375 132.875 34.894531 C 128.136719 39.660156 123.066406 44.132812 117.691406 48.300781 C 112.078125 43.632812 106.511719 39.875 101.132812 37.210938 C 104.335938 34.835938 107.417969 32.347656 110.371094 29.753906 Z M 63.910156 57.171875 C 70.257812 54.878906 76.519531 52.113281 82.648438 48.863281 L 91.617188 64.722656 C 87.058594 67.011719 82.351562 69.105469 77.492188 70.980469 C 72.886719 72.761719 68.242188 74.304688 63.582031 75.636719 C 62.953125 68.753906 63.078125 62.554688 63.90625 57.171875 Z M 100.285156 37.820312 C 105.785156 40.308594 111.5 43.984375 117.269531 48.632812 C 109.675781 54.476562 101.472656 59.691406 92.699219 64.171875 L 83.980469 48.140625 C 84.207031 48.015625 84.4375 47.898438 84.664062 47.777344 C 90.152344 44.753906 95.355469 41.421875 100.285156 37.820312 Z M 29.894531 82.171875 C 33.808594 81.894531 37.726562 81.464844 41.644531 80.898438 C 39.792969 88.785156 38.9375 97.292969 39.164062 106.25 C 32.988281 107.007812 26.808594 107.441406 20.648438 107.570312 C 22.621094 98.679688 25.757812 90.152344 29.894531 82.171875 Z M 141.652344 26.195312 C 149.640625 27.53125 157.351562 29.785156 164.664062 32.847656 C 161.433594 37.253906 158 41.519531 154.371094 45.636719 C 147.867188 41.050781 141.050781 37.261719 134.058594 34.390625 C 136.6875 31.738281 139.226562 29.007812 141.652344 26.195312 Z M 42.710938 80.738281 C 49.523438 79.703125 56.335938 78.230469 63.105469 76.289062 C 63.925781 83.621094 65.558594 91.683594 68.035156 100.320312 C 58.679688 103.042969 49.230469 104.984375 39.761719 106.175781 C 39.648438 97.175781 40.671875 88.632812 42.710938 80.738281 Z M 133.371094 35.082031 C 140.472656 37.832031 147.390625 41.542969 153.984375 46.074219 C 148.035156 52.78125 141.570312 59.089844 134.589844 64.921875 C 129.128906 58.722656 123.554688 53.207031 118.023438 48.574219 C 123.453125 44.382812 128.570312 39.867188 133.371094 35.082031 Z M 63.632812 76.132812 C 68.152344 74.824219 72.652344 73.316406 77.125 71.589844 C 82.179688 69.632812 87.074219 67.449219 91.816406 65.0625 L 103.5625 85.84375 C 99.710938 87.902344 95.761719 89.835938 91.710938 91.644531 C 84.015625 95.074219 76.191406 97.929688 68.3125 100.238281 C 65.886719 91.550781 64.339844 83.460938 63.632812 76.132812 Z M 117.605469 48.894531 C 123.203125 53.441406 128.847656 58.910156 134.371094 65.097656 C 125.1875 72.753906 115.140625 79.59375 104.277344 85.460938 L 92.890625 64.515625 C 101.703125 60 109.957031 54.757812 117.605469 48.894531 Z M 20.445312 108.542969 C 26.679688 108.371094 32.9375 107.890625 39.1875 107.078125 C 39.429688 114.507812 40.421875 122.242188 42.234375 130.167969 C 42.511719 131.378906 42.808594 132.582031 43.117188 133.78125 C 34.832031 134.839844 26.566406 135.390625 18.359375 135.464844 C 17.863281 126.273438 18.605469 117.238281 20.445312 108.542969 Z M 165.300781 33.113281 C 173.554688 36.636719 181.28125 41.210938 188.296875 46.679688 C 184.09375 52.601562 179.582031 58.304688 174.789062 63.777344 C 168.648438 57.015625 161.941406 51.015625 154.851562 45.964844 C 158.535156 41.824219 162.019531 37.535156 165.300781 33.113281 Z M 39.777344 106.996094 C 49.289062 105.726562 58.792969 103.707031 68.203125 100.910156 C 69.390625 105.011719 70.769531 109.242188 72.34375 113.582031 C 73.910156 117.914062 75.628906 122.21875 77.464844 126.476562 C 73.289062 127.730469 69.050781 128.859375 64.746094 129.871094 C 57.652344 131.535156 50.554688 132.8125 43.46875 133.730469 C 43.195312 132.640625 42.921875 131.542969 42.675781 130.445312 C 40.875 122.390625 39.929688 114.535156 39.777344 106.996094 Z M 154.46875 46.40625 C 161.625 51.375 168.386719 57.308594 174.5625 64.03125 C 167.4375 72.140625 159.683594 79.71875 151.347656 86.683594 C 146.089844 78.933594 140.558594 71.730469 134.894531 65.265625 C 141.921875 59.417969 148.460938 53.117188 154.46875 46.40625 Z M 68.46875 100.828125 C 76.160156 98.53125 83.785156 95.71875 91.3125 92.363281 C 95.578125 90.460938 99.726562 88.410156 103.777344 86.234375 L 117.171875 109.929688 C 104.792969 116.660156 91.570312 122.21875 77.617188 126.425781 C 75.84375 122.296875 74.195312 118.121094 72.683594 113.921875 C 71.070312 109.425781 69.667969 105.058594 68.472656 100.828125 Z M 134.675781 65.445312 C 140.375 71.859375 145.945312 79.042969 151.222656 86.789062 C 140.84375 95.449219 129.570312 103.160156 117.488281 109.757812 L 104.492188 85.851562 C 115.367188 79.957031 125.449219 73.097656 134.675781 65.441406 Z M 134.675781 65.445312 " fill-opacity="1" fill-rule="nonzero"/></g></g></g><g clip-path="url(#fa9497bd89)"><g clip-path="url(#e3dff036e8)"><g clip-path="url(#f243568369)"><path fill="#FFFFFF" d="M 193.464844 77.808594 L 185.195312 81.765625 C 167.085938 43.902344 121.554688 27.832031 83.691406 45.9375 C 45.828125 64.042969 29.753906 109.578125 47.863281 147.441406 L 39.589844 151.394531 C 19.300781 108.972656 37.3125 57.953125 79.734375 37.667969 C 122.160156 17.378906 173.179688 35.386719 193.464844 77.808594 Z M 193.464844 77.808594 " fill-opacity="1" fill-rule="nonzero"/></g></g></g><g clip-path="url(#af9b16b944)"><g clip-path="url(#fb320624e8)"><g clip-path="url(#b041abdb24)"><path fill="#FFFFFF" d="M 191.449219 71.429688 C 182.746094 84.101562 173.273438 98.066406 164.570312 110.738281 C 164.582031 110.746094 164.585938 110.753906 164.597656 110.761719 C 164.75 110.890625 164.898438 111.035156 165.042969 111.203125 C 165.199219 111.363281 165.332031 111.527344 165.449219 111.699219 C 166.742188 113.324219 167.722656 115.179688 168.367188 117.140625 C 177.804688 103.390625 188.019531 88.355469 197.457031 74.605469 C 195.261719 73.957031 193.199219 72.875 191.449219 71.429688 Z M 191.449219 71.429688 " fill-opacity="1" fill-rule="nonzero"/></g></g></g><g clip-path="url(#767ac3400a)"><g clip-path="url(#982d754724)"><g clip-path="url(#23f60050f9)"><path fill="#FFFFFF" d="M 100.027344 94.496094 C 100.464844 96.972656 100.304688 99.503906 99.617188 101.878906 C 112.039062 108.285156 125.746094 115.457031 138.167969 121.863281 C 138.136719 119.503906 138.597656 117.152344 139.59375 115 C 126.832031 108.421875 112.785156 101.074219 100.027344 94.496094 Z M 100.027344 94.496094 " fill-opacity="1" fill-rule="nonzero"/></g></g></g><g clip-path="url(#060f55e1a9)"><g clip-path="url(#c1e70aca44)"><g clip-path="url(#2947c3e287)"><path fill="#FFFFFF" d="M 41.265625 146.789062 C 38.222656 145.492188 34.726562 145.105469 31.039062 145.824219 C 22.074219 147.570312 17.699219 157.183594 19.308594 165.4375 C 21.058594 174.402344 30.667969 178.78125 38.925781 177.167969 C 47.53125 175.488281 51.890625 166.570312 50.804688 158.554688 C 50.800781 158.238281 50.765625 157.910156 50.652344 157.550781 C 50.585938 157.195312 50.460938 156.890625 50.320312 156.613281 C 49.480469 154.324219 48.28125 152.324219 46.78125 150.6875 C 56.042969 137.203125 65.6875 123.074219 74.945312 109.589844 C 73.097656 108.125 71.570312 106.261719 70.554688 104.058594 C 60.921875 118.085938 50.902344 132.761719 41.265625 146.789062 Z M 25.871094 163.789062 C 22.28125 152.195312 40.523438 147.667969 44.09375 159.203125 C 46.417969 171.105469 29.457031 175.375 25.871094 163.789062 Z M 25.871094 163.789062 " fill-opacity="1" fill-rule="nonzero"/></g></g></g><g clip-path="url(#aba0964109)"><g clip-path="url(#5e529c941e)"><g clip-path="url(#ef43dab8fc)"><path fill="#FFFFFF" d="M 99.851562 91.941406 C 99.804688 91.820312 99.753906 91.707031 99.699219 91.59375 C 99.648438 91.429688 99.589844 91.265625 99.515625 91.097656 C 96.046875 83.585938 87.34375 79.867188 79.519531 82.550781 C 71.558594 85.28125 67.378906 93.695312 69.167969 101.738281 C 69.398438 102.78125 69.738281 103.769531 70.167969 104.703125 C 71.183594 106.902344 72.710938 108.769531 74.5625 110.230469 C 78.65625 113.46875 84.328125 114.726562 89.527344 113.253906 C 94.941406 111.71875 98.796875 107.355469 100.265625 102.265625 C 100.949219 99.890625 101.113281 97.359375 100.671875 94.878906 C 100.496094 93.886719 100.226562 92.902344 99.851562 91.941406 Z M 87.875 106.695312 C 82.570312 108.546875 77.300781 105.222656 75.726562 100.085938 C 74.3125 95.460938 77.285156 90.964844 81.355469 89.042969 C 86.121094 86.789062 91.304688 89.832031 93.464844 94.101562 C 95.191406 99.191406 93.273438 104.808594 87.875 106.695312 Z M 87.875 106.695312 " fill-opacity="1" fill-rule="nonzero"/></g></g></g><g clip-path="url(#78b52631a6)"><g clip-path="url(#0f34af7d50)"><g clip-path="url(#337d343f6d)"><path fill="#FFFFFF" d="M 165.429688 110.554688 C 165.285156 110.386719 165.132812 110.246094 164.980469 110.117188 C 164.972656 110.109375 164.964844 110.101562 164.957031 110.09375 C 158.597656 104.046875 148.976562 104.011719 142.414062 109.910156 C 140.898438 111.277344 139.75 112.878906 138.945312 114.613281 C 137.953125 116.765625 137.492188 119.117188 137.523438 121.476562 C 137.582031 125.695312 139.21875 129.929688 142.226562 133.046875 C 148.183594 139.222656 157.765625 138.878906 164.183594 133.78125 C 169.519531 129.542969 170.742188 122.527344 168.753906 116.492188 C 168.113281 114.53125 167.128906 112.675781 165.835938 111.050781 C 165.71875 110.882812 165.585938 110.714844 165.429688 110.554688 Z M 159.96875 128.484375 C 156.65625 131.769531 151.042969 131.695312 147.554688 128.773438 C 143.507812 125.386719 143.175781 119.257812 146.589844 115.3125 C 150.332031 110.988281 156.792969 111.394531 160.597656 115.292969 C 164.011719 119.265625 163.621094 124.859375 159.96875 128.484375 Z M 159.96875 128.484375 " fill-opacity="1" fill-rule="nonzero"/></g></g></g><g clip-path="url(#bec4ef6d33)"><g clip-path="url(#d580a0be68)"><g clip-path="url(#6833f8250c)"><path fill="#FFFFFF" d="M 217.117188 55.234375 C 214.8125 47.058594 206.300781 42.585938 198.246094 44.097656 C 198.070312 44.121094 197.886719 44.152344 197.699219 44.207031 C 197.507812 44.246094 197.332031 44.304688 197.167969 44.367188 C 189.046875 46.925781 184.429688 54.707031 185.808594 63.113281 C 186.414062 66.792969 188.375 69.859375 191.0625 72.074219 C 192.8125 73.519531 194.875 74.601562 197.070312 75.25 C 200.261719 76.195312 203.738281 76.226562 206.960938 75.121094 C 215.125 72.320312 219.421875 63.417969 217.117188 55.234375 Z M 205.125 68.628906 C 199.578125 71.253906 193.570312 66.863281 192.371094 61.460938 C 191.300781 56.632812 194.851562 52.03125 199.347656 50.765625 C 204.113281 49.707031 208.949219 52.195312 210.554688 56.886719 C 212.222656 61.75 209.5625 66.53125 205.125 68.628906 Z M 205.125 68.628906 " fill-opacity="1" fill-rule="nonzero"/></g></g></g></g></g><g fill="#FFFFFF" fill-opacity="1"><g transform="translate(191.306318, 509.078778)"><g><path d="M 11.859375 -2.984375 L 5.34375 -2.984375 L 4.140625 0 L -0.3125 0 L 6.484375 -15.40625 L 10.78125 -15.40625 L 17.59375 0 L 13.0625 0 Z M 10.578125 -6.203125 L 8.609375 -11.125 L 6.625 -6.203125 Z M 10.578125 -6.203125 "/></g></g></g><g fill="#FFFFFF" fill-opacity="1"><g transform="translate(211.983227, 509.078778)"><g><path d="M 4.8125 -11.953125 L 0.09375 -11.953125 L 0.09375 -15.40625 L 13.875 -15.40625 L 13.875 -11.953125 L 9.171875 -11.953125 L 9.171875 0 L 4.8125 0 Z M 4.8125 -11.953125 "/></g></g></g><g fill="#FFFFFF" fill-opacity="1"><g transform="translate(229.33873, 509.078778)"><g><path d="M 1.546875 -15.40625 L 5.890625 -15.40625 L 5.890625 -3.453125 L 13.25 -3.453125 L 13.25 0 L 1.546875 0 Z M 1.546875 -15.40625 "/></g></g></g><g fill="#FFFFFF" fill-opacity="1"><g transform="translate(246.144332, 509.078778)"><g><path d="M 11.859375 -2.984375 L 5.34375 -2.984375 L 4.140625 0 L -0.3125 0 L 6.484375 -15.40625 L 10.78125 -15.40625 L 17.59375 0 L 13.0625 0 Z M 10.578125 -6.203125 L 8.609375 -11.125 L 6.625 -6.203125 Z M 10.578125 -6.203125 "/></g></g></g><g fill="#FFFFFF" fill-opacity="1"><g transform="translate(266.821242, 509.078778)"><g><path d="M 6.953125 0.3125 C 5.703125 0.3125 4.488281 0.160156 3.3125 -0.140625 C 2.144531 -0.453125 1.195312 -0.867188 0.46875 -1.390625 L 1.890625 -4.59375 C 2.578125 -4.144531 3.375 -3.78125 4.28125 -3.5 C 5.195312 -3.21875 6.09375 -3.078125 6.96875 -3.078125 C 8.644531 -3.078125 9.484375 -3.492188 9.484375 -4.328125 C 9.484375 -4.773438 9.242188 -5.101562 8.765625 -5.3125 C 8.285156 -5.519531 7.519531 -5.742188 6.46875 -5.984375 C 5.3125 -6.234375 4.34375 -6.5 3.5625 -6.78125 C 2.78125 -7.070312 2.109375 -7.53125 1.546875 -8.15625 C 0.992188 -8.789062 0.71875 -9.644531 0.71875 -10.71875 C 0.71875 -11.65625 0.972656 -12.5 1.484375 -13.25 C 2.003906 -14.007812 2.773438 -14.609375 3.796875 -15.046875 C 4.816406 -15.484375 6.066406 -15.703125 7.546875 -15.703125 C 8.554688 -15.703125 9.550781 -15.585938 10.53125 -15.359375 C 11.519531 -15.140625 12.390625 -14.804688 13.140625 -14.359375 L 11.796875 -11.125 C 10.328125 -11.914062 8.90625 -12.3125 7.53125 -12.3125 C 6.65625 -12.3125 6.019531 -12.179688 5.625 -11.921875 C 5.226562 -11.671875 5.03125 -11.34375 5.03125 -10.9375 C 5.03125 -10.519531 5.265625 -10.207031 5.734375 -10 C 6.210938 -9.800781 6.972656 -9.59375 8.015625 -9.375 C 9.179688 -9.125 10.148438 -8.851562 10.921875 -8.5625 C 11.691406 -8.28125 12.359375 -7.828125 12.921875 -7.203125 C 13.484375 -6.578125 13.765625 -5.726562 13.765625 -4.65625 C 13.765625 -3.738281 13.507812 -2.90625 13 -2.15625 C 12.488281 -1.40625 11.71875 -0.804688 10.6875 -0.359375 C 9.664062 0.0859375 8.421875 0.3125 6.953125 0.3125 Z M 6.953125 0.3125 "/></g></g></g><g fill="#FFFFFF" fill-opacity="1"><g transform="translate(284.44069, 509.078778)"><g/></g></g><g fill="#FFFFFF" fill-opacity="1"><g transform="translate(294.229542, 509.078778)"><g><path d="M 8.265625 -4.09375 L 5.890625 -4.09375 L 5.890625 0 L 1.546875 0 L 1.546875 -15.40625 L 8.578125 -15.40625 C 9.972656 -15.40625 11.179688 -15.171875 12.203125 -14.703125 C 13.234375 -14.242188 14.023438 -13.582031 14.578125 -12.71875 C 15.140625 -11.863281 15.421875 -10.859375 15.421875 -9.703125 C 15.421875 -8.585938 15.160156 -7.613281 14.640625 -6.78125 C 14.117188 -5.957031 13.375 -5.3125 12.40625 -4.84375 L 15.734375 0 L 11.0625 0 Z M 11.015625 -9.703125 C 11.015625 -10.421875 10.785156 -10.976562 10.328125 -11.375 C 9.878906 -11.769531 9.207031 -11.96875 8.3125 -11.96875 L 5.890625 -11.96875 L 5.890625 -7.453125 L 8.3125 -7.453125 C 9.207031 -7.453125 9.878906 -7.644531 10.328125 -8.03125 C 10.785156 -8.425781 11.015625 -8.984375 11.015625 -9.703125 Z M 11.015625 -9.703125 "/></g></g></g><g fill="#FFFFFF" fill-opacity="1"><g transform="translate(313.894633, 509.078778)"><g><path d="M 13.90625 -3.359375 L 13.90625 0 L 1.546875 0 L 1.546875 -15.40625 L 13.625 -15.40625 L 13.625 -12.03125 L 5.859375 -12.03125 L 5.859375 -9.4375 L 12.6875 -9.4375 L 12.6875 -6.1875 L 5.859375 -6.1875 L 5.859375 -3.359375 Z M 13.90625 -3.359375 "/></g></g></g><g fill="#FFFFFF" fill-opacity="1"><g transform="translate(332.063994, 509.078778)"><g><path d="M 6.953125 0.3125 C 5.703125 0.3125 4.488281 0.160156 3.3125 -0.140625 C 2.144531 -0.453125 1.195312 -0.867188 0.46875 -1.390625 L 1.890625 -4.59375 C 2.578125 -4.144531 3.375 -3.78125 4.28125 -3.5 C 5.195312 -3.21875 6.09375 -3.078125 6.96875 -3.078125 C 8.644531 -3.078125 9.484375 -3.492188 9.484375 -4.328125 C 9.484375 -4.773438 9.242188 -5.101562 8.765625 -5.3125 C 8.285156 -5.519531 7.519531 -5.742188 6.46875 -5.984375 C 5.3125 -6.234375 4.34375 -6.5 3.5625 -6.78125 C 2.78125 -7.070312 2.109375 -7.53125 1.546875 -8.15625 C 0.992188 -8.789062 0.71875 -9.644531 0.71875 -10.71875 C 0.71875 -11.65625 0.972656 -12.5 1.484375 -13.25 C 2.003906 -14.007812 2.773438 -14.609375 3.796875 -15.046875 C 4.816406 -15.484375 6.066406 -15.703125 7.546875 -15.703125 C 8.554688 -15.703125 9.550781 -15.585938 10.53125 -15.359375 C 11.519531 -15.140625 12.390625 -14.804688 13.140625 -14.359375 L 11.796875 -11.125 C 10.328125 -11.914062 8.90625 -12.3125 7.53125 -12.3125 C 6.65625 -12.3125 6.019531 -12.179688 5.625 -11.921875 C 5.226562 -11.671875 5.03125 -11.34375 5.03125 -10.9375 C 5.03125 -10.519531 5.265625 -10.207031 5.734375 -10 C 6.210938 -9.800781 6.972656 -9.59375 8.015625 -9.375 C 9.179688 -9.125 10.148438 -8.851562 10.921875 -8.5625 C 11.691406 -8.28125 12.359375 -7.828125 12.921875 -7.203125 C 13.484375 -6.578125 13.765625 -5.726562 13.765625 -4.65625 C 13.765625 -3.738281 13.507812 -2.90625 13 -2.15625 C 12.488281 -1.40625 11.71875 -0.804688 10.6875 -0.359375 C 9.664062 0.0859375 8.421875 0.3125 6.953125 0.3125 Z M 6.953125 0.3125 "/></g></g></g><g fill="#FFFFFF" fill-opacity="1"><g transform="translate(349.683442, 509.078778)"><g><path d="M 13.90625 -3.359375 L 13.90625 0 L 1.546875 0 L 1.546875 -15.40625 L 13.625 -15.40625 L 13.625 -12.03125 L 5.859375 -12.03125 L 5.859375 -9.4375 L 12.6875 -9.4375 L 12.6875 -6.1875 L 5.859375 -6.1875 L 5.859375 -3.359375 Z M 13.90625 -3.359375 "/></g></g></g><g fill="#FFFFFF" fill-opacity="1"><g transform="translate(367.852802, 509.078778)"><g><path d="M 11.859375 -2.984375 L 5.34375 -2.984375 L 4.140625 0 L -0.3125 0 L 6.484375 -15.40625 L 10.78125 -15.40625 L 17.59375 0 L 13.0625 0 Z M 10.578125 -6.203125 L 8.609375 -11.125 L 6.625 -6.203125 Z M 10.578125 -6.203125 "/></g></g></g><g fill="#FFFFFF" fill-opacity="1"><g transform="translate(388.529712, 509.078778)"><g><path d="M 8.265625 -4.09375 L 5.890625 -4.09375 L 5.890625 0 L 1.546875 0 L 1.546875 -15.40625 L 8.578125 -15.40625 C 9.972656 -15.40625 11.179688 -15.171875 12.203125 -14.703125 C 13.234375 -14.242188 14.023438 -13.582031 14.578125 -12.71875 C 15.140625 -11.863281 15.421875 -10.859375 15.421875 -9.703125 C 15.421875 -8.585938 15.160156 -7.613281 14.640625 -6.78125 C 14.117188 -5.957031 13.375 -5.3125 12.40625 -4.84375 L 15.734375 0 L 11.0625 0 Z M 11.015625 -9.703125 C 11.015625 -10.421875 10.785156 -10.976562 10.328125 -11.375 C 9.878906 -11.769531 9.207031 -11.96875 8.3125 -11.96875 L 5.890625 -11.96875 L 5.890625 -7.453125 L 8.3125 -7.453125 C 9.207031 -7.453125 9.878906 -7.644531 10.328125 -8.03125 C 10.785156 -8.425781 11.015625 -8.984375 11.015625 -9.703125 Z M 11.015625 -9.703125 "/></g></g></g><g fill="#FFFFFF" fill-opacity="1"><g transform="translate(408.194803, 509.078778)"><g><path d="M 9.21875 0.3125 C 7.601562 0.3125 6.15625 -0.0234375 4.875 -0.703125 C 3.59375 -1.390625 2.582031 -2.34375 1.84375 -3.5625 C 1.113281 -4.78125 0.75 -6.160156 0.75 -7.703125 C 0.75 -9.242188 1.113281 -10.617188 1.84375 -11.828125 C 2.582031 -13.046875 3.59375 -13.992188 4.875 -14.671875 C 6.15625 -15.359375 7.601562 -15.703125 9.21875 -15.703125 C 10.625 -15.703125 11.890625 -15.453125 13.015625 -14.953125 C 14.148438 -14.460938 15.09375 -13.742188 15.84375 -12.796875 L 13.0625 -10.296875 C 12.070312 -11.492188 10.863281 -12.09375 9.4375 -12.09375 C 8.601562 -12.09375 7.859375 -11.910156 7.203125 -11.546875 C 6.546875 -11.179688 6.035156 -10.664062 5.671875 -10 C 5.316406 -9.332031 5.140625 -8.566406 5.140625 -7.703125 C 5.140625 -6.835938 5.316406 -6.070312 5.671875 -5.40625 C 6.035156 -4.738281 6.546875 -4.21875 7.203125 -3.84375 C 7.859375 -3.476562 8.601562 -3.296875 9.4375 -3.296875 C 10.863281 -3.296875 12.070312 -3.898438 13.0625 -5.109375 L 15.84375 -2.59375 C 15.09375 -1.65625 14.148438 -0.9375 13.015625 -0.4375 C 11.890625 0.0625 10.625 0.3125 9.21875 0.3125 Z M 9.21875 0.3125 "/></g></g></g><g fill="#FFFFFF" fill-opacity="1"><g transform="translate(427.815904, 509.078778)"><g><path d="M 16.1875 -15.40625 L 16.1875 0 L 11.84375 0 L 11.84375 -6 L 5.890625 -6 L 5.890625 0 L 1.546875 0 L 1.546875 -15.40625 L 5.890625 -15.40625 L 5.890625 -9.609375 L 11.84375 -9.609375 L 11.84375 -15.40625 Z M 16.1875 -15.40625 "/></g></g></g><g fill="#FFFFFF" fill-opacity="1"><g transform="translate(448.932724, 509.078778)"><g/></g></g><g fill="#FFFFFF" fill-opacity="1"><g transform="translate(458.721588, 509.078778)"><g><path d="M 11.859375 -2.984375 L 5.34375 -2.984375 L 4.140625 0 L -0.3125 0 L 6.484375 -15.40625 L 10.78125 -15.40625 L 17.59375 0 L 13.0625 0 Z M 10.578125 -6.203125 L 8.609375 -11.125 L 6.625 -6.203125 Z M 10.578125 -6.203125 "/></g></g></g><g fill="#FFFFFF" fill-opacity="1"><g transform="translate(479.398497, 509.078778)"><g><path d="M 16.1875 -15.40625 L 16.1875 0 L 12.609375 0 L 5.8125 -8.203125 L 5.8125 0 L 1.546875 0 L 1.546875 -15.40625 L 5.125 -15.40625 L 11.921875 -7.1875 L 11.921875 -15.40625 Z M 16.1875 -15.40625 "/></g></g></g><g fill="#FFFFFF" fill-opacity="1"><g transform="translate(500.515318, 509.078778)"><g><path d="M 11.859375 -2.984375 L 5.34375 -2.984375 L 4.140625 0 L -0.3125 0 L 6.484375 -15.40625 L 10.78125 -15.40625 L 17.59375 0 L 13.0625 0 Z M 10.578125 -6.203125 L 8.609375 -11.125 L 6.625 -6.203125 Z M 10.578125 -6.203125 "/></g></g></g><g fill="#FFFFFF" fill-opacity="1"><g transform="translate(521.192227, 509.078778)"><g><path d="M 1.546875 -15.40625 L 5.890625 -15.40625 L 5.890625 -3.453125 L 13.25 -3.453125 L 13.25 0 L 1.546875 0 Z M 1.546875 -15.40625 "/></g></g></g><g fill="#FFFFFF" fill-opacity="1"><g transform="translate(537.99783, 509.078778)"><g><path d="M 9.796875 -5.515625 L 9.796875 0 L 5.4375 0 L 5.4375 -5.59375 L -0.4375 -15.40625 L 4.15625 -15.40625 L 7.8125 -9.28125 L 11.46875 -15.40625 L 15.6875 -15.40625 Z M 9.796875 -5.515625 "/></g></g></g><g fill="#FFFFFF" fill-opacity="1"><g transform="translate(556.629107, 509.078778)"><g><path d="M 4.8125 -11.953125 L 0.09375 -11.953125 L 0.09375 -15.40625 L 13.875 -15.40625 L 13.875 -11.953125 L 9.171875 -11.953125 L 9.171875 0 L 4.8125 0 Z M 4.8125 -11.953125 "/></g></g></g><g fill="#FFFFFF" fill-opacity="1"><g transform="translate(573.984599, 509.078778)"><g><path d="M 1.546875 -15.40625 L 5.890625 -15.40625 L 5.890625 0 L 1.546875 0 Z M 1.546875 -15.40625 "/></g></g></g><g fill="#FFFFFF" fill-opacity="1"><g transform="translate(584.829248, 509.078778)"><g><path d="M 9.21875 0.3125 C 7.601562 0.3125 6.15625 -0.0234375 4.875 -0.703125 C 3.59375 -1.390625 2.582031 -2.34375 1.84375 -3.5625 C 1.113281 -4.78125 0.75 -6.160156 0.75 -7.703125 C 0.75 -9.242188 1.113281 -10.617188 1.84375 -11.828125 C 2.582031 -13.046875 3.59375 -13.992188 4.875 -14.671875 C 6.15625 -15.359375 7.601562 -15.703125 9.21875 -15.703125 C 10.625 -15.703125 11.890625 -15.453125 13.015625 -14.953125 C 14.148438 -14.460938 15.09375 -13.742188 15.84375 -12.796875 L 13.0625 -10.296875 C 12.070312 -11.492188 10.863281 -12.09375 9.4375 -12.09375 C 8.601562 -12.09375 7.859375 -11.910156 7.203125 -11.546875 C 6.546875 -11.179688 6.035156 -10.664062 5.671875 -10 C 5.316406 -9.332031 5.140625 -8.566406 5.140625 -7.703125 C 5.140625 -6.835938 5.316406 -6.070312 5.671875 -5.40625 C 6.035156 -4.738281 6.546875 -4.21875 7.203125 -3.84375 C 7.859375 -3.476562 8.601562 -3.296875 9.4375 -3.296875 C 10.863281 -3.296875 12.070312 -3.898438 13.0625 -5.109375 L 15.84375 -2.59375 C 15.09375 -1.65625 14.148438 -0.9375 13.015625 -0.4375 C 11.890625 0.0625 10.625 0.3125 9.21875 0.3125 Z M 9.21875 0.3125 "/></g></g></g><g fill="#FFFFFF" fill-opacity="1"><g transform="translate(604.450372, 509.078778)"><g><path d="M 6.953125 0.3125 C 5.703125 0.3125 4.488281 0.160156 3.3125 -0.140625 C 2.144531 -0.453125 1.195312 -0.867188 0.46875 -1.390625 L 1.890625 -4.59375 C 2.578125 -4.144531 3.375 -3.78125 4.28125 -3.5 C 5.195312 -3.21875 6.09375 -3.078125 6.96875 -3.078125 C 8.644531 -3.078125 9.484375 -3.492188 9.484375 -4.328125 C 9.484375 -4.773438 9.242188 -5.101562 8.765625 -5.3125 C 8.285156 -5.519531 7.519531 -5.742188 6.46875 -5.984375 C 5.3125 -6.234375 4.34375 -6.5 3.5625 -6.78125 C 2.78125 -7.070312 2.109375 -7.53125 1.546875 -8.15625 C 0.992188 -8.789062 0.71875 -9.644531 0.71875 -10.71875 C 0.71875 -11.65625 0.972656 -12.5 1.484375 -13.25 C 2.003906 -14.007812 2.773438 -14.609375 3.796875 -15.046875 C 4.816406 -15.484375 6.066406 -15.703125 7.546875 -15.703125 C 8.554688 -15.703125 9.550781 -15.585938 10.53125 -15.359375 C 11.519531 -15.140625 12.390625 -14.804688 13.140625 -14.359375 L 11.796875 -11.125 C 10.328125 -11.914062 8.90625 -12.3125 7.53125 -12.3125 C 6.65625 -12.3125 6.019531 -12.179688 5.625 -11.921875 C 5.226562 -11.671875 5.03125 -11.34375 5.03125 -10.9375 C 5.03125 -10.519531 5.265625 -10.207031 5.734375 -10 C 6.210938 -9.800781 6.972656 -9.59375 8.015625 -9.375 C 9.179688 -9.125 10.148438 -8.851562 10.921875 -8.5625 C 11.691406 -8.28125 12.359375 -7.828125 12.921875 -7.203125 C 13.484375 -6.578125 13.765625 -5.726562 13.765625 -4.65625 C 13.765625 -3.738281 13.507812 -2.90625 13 -2.15625 C 12.488281 -1.40625 11.71875 -0.804688 10.6875 -0.359375 C 9.664062 0.0859375 8.421875 0.3125 6.953125 0.3125 Z M 6.953125 0.3125 "/></g></g></g></svg>